# xmcd
#
# Track frame offsets:
#	150
#	3954
#	25092
#	42844
#	67261
#	91308
#	107790
#	128064
#	155676
#	171996
#	188955
#	208134
#	221388
#	227619
#	241982
#
# Disc length: 3344 seconds
#
# Revision: 0
# Processed by: cddbd v1.4PL0 Copyright (c) Steve Scherf et al.
# Submitted via: AudioConverter v4.01 Copyright (c) Dennis Rebentrost
#
DISCID=cc0d0e0f
DTITLE=MUDDY HARP - MARK HODGSON - FROM THE DELTA TO THE PIEDMONT
DYEAR=2002
DGENRE=AMERICANA
TTITLE0=UNDER THE STARS
TTITLE1=2 BLIND MEN ON THE PORCH
TTITLE2=FROM THE DELTA TO THE PIEDMONT
TTITLE3=STATESBORO BLUES
TTITLE4=LADY TO YOU
TTITLE5=KEEPIN OUR LOVIN' ALIVE
TTITLE6=BOBBY McGEE
TTITLE7=I'M WAITIN FOR YOU - FULL CIRCLE
TTITLE8=THE FREEDOM I HAVE FOUND
TTITLE9=SOMETIMES THINGS AINT WHAT THEY SEEM
TTITLE10=OLD CHARLESTON
TTITLE11=KNEE DEEP IN THE BLUES
TTITLE12=TOBACCO MAN
TTITLE13=THIS BLUE
TTITLE14=MAYBE STORYVILLE
EXTD=
EXTT0=
EXTT1=
EXTT2=
EXTT3=
EXTT4=
EXTT5=
EXTT6=
EXTT7=
EXTT8=
EXTT9=
EXTT10=
EXTT11=
EXTT12=
EXTT13=
EXTT14=
PLAYORDER=
